<svg width="24" height="27" viewBox="0 0 24 27" fill="none" xmlns="http://www.w3.org/2000/svg">
<path d="M12 0C5.38352 0 0 6.05646 0 13.5C0 20.9435 5.38352 27 12 27C18.6165 27 24 20.9435 24 13.5C24 6.05646 18.6165 0 12 0ZM12 2.07692C17.6187 2.07692 22.1538 7.17891 22.1538 13.5C22.1538 19.2455 18.4017 23.9698 13.5 24.7852V16.802H16.3666L16.8173 13.5284H13.5V11.7354C13.5 10.375 13.8935 9.16767 15.0252 9.16767H16.8425V6.30784C16.5232 6.26007 15.8485 6.1537 14.5709 6.1537C11.9051 6.1537 10.3413 7.73839 10.3413 11.346V13.5243H7.60096V16.802H10.345V24.7568C5.51961 23.8682 1.84615 19.1847 1.84615 13.5C1.84615 7.17891 6.38125 2.07692 12 2.07692Z" fill="#CEE1F4"/>
</svg>
