<svg width="24" height="27" viewBox="0 0 24 27" fill="none" xmlns="http://www.w3.org/2000/svg">
<g clip-path="url(#clip0_449_1820)">
<path d="M12 2.43105C15.2063 2.43105 15.5859 2.44687 16.8469 2.51016C18.0188 2.56816 18.6516 2.78965 19.0734 2.97422C19.6313 3.2168 20.0344 3.51211 20.4516 3.98145C20.8734 4.45605 21.1313 4.9043 21.3469 5.53184C21.5109 6.00645 21.7078 6.72363 21.7594 8.03672C21.8156 9.46055 21.8297 9.8877 21.8297 13.4895C21.8297 17.0965 21.8156 17.5236 21.7594 18.9422C21.7078 20.2605 21.5109 20.9725 21.3469 21.4471C21.1313 22.0746 20.8687 22.5281 20.4516 22.9975C20.0297 23.4721 19.6313 23.7621 19.0734 24.0047C18.6516 24.1893 18.0141 24.4107 16.8469 24.4688C15.5813 24.532 15.2016 24.5479 12 24.5479C8.79375 24.5479 8.41406 24.532 7.15313 24.4688C5.98125 24.4107 5.34844 24.1893 4.92656 24.0047C4.36875 23.7621 3.96563 23.4668 3.54844 22.9975C3.12656 22.5229 2.86875 22.0746 2.65313 21.4471C2.48906 20.9725 2.29219 20.2553 2.24063 18.9422C2.18438 17.5184 2.17031 17.0912 2.17031 13.4895C2.17031 9.88242 2.18438 9.45527 2.24063 8.03672C2.29219 6.71836 2.48906 6.00645 2.65313 5.53184C2.86875 4.9043 3.13125 4.45078 3.54844 3.98145C3.97031 3.50684 4.36875 3.2168 4.92656 2.97422C5.34844 2.78965 5.98594 2.56816 7.15313 2.51016C8.41406 2.44687 8.79375 2.43105 12 2.43105ZM12 0C8.74219 0 8.33438 0.0158203 7.05469 0.0791016C5.77969 0.142383 4.90313 0.374414 4.14375 0.706641C3.35156 1.05469 2.68125 1.51348 2.01563 2.26758C1.34531 3.01641 0.9375 3.77051 0.628125 4.65645C0.332812 5.51602 0.126563 6.49687 0.0703125 7.93125C0.0140625 9.37617 0 9.83496 0 13.5C0 17.165 0.0140625 17.6238 0.0703125 19.0635C0.126563 20.4979 0.332812 21.484 0.628125 22.3383C0.9375 23.2295 1.34531 23.9836 2.01563 24.7324C2.68125 25.4813 3.35156 25.9453 4.13906 26.2881C4.90313 26.6203 5.775 26.8523 7.05 26.9156C8.32969 26.9789 8.7375 26.9947 11.9953 26.9947C15.2531 26.9947 15.6609 26.9789 16.9406 26.9156C18.2156 26.8523 19.0922 26.6203 19.8516 26.2881C20.6391 25.9453 21.3094 25.4813 21.975 24.7324C22.6406 23.9836 23.0531 23.2295 23.3578 22.3436C23.6531 21.484 23.8594 20.5031 23.9156 19.0688C23.9719 17.6291 23.9859 17.1703 23.9859 13.5053C23.9859 9.84023 23.9719 9.38145 23.9156 7.9418C23.8594 6.50742 23.6531 5.52129 23.3578 4.66699C23.0625 3.77051 22.6547 3.01641 21.9844 2.26758C21.3188 1.51875 20.6484 1.05469 19.8609 0.711914C19.0969 0.379687 18.225 0.147656 16.95 0.084375C15.6656 0.0158203 15.2578 0 12 0Z" fill="#CEE1F4"/>
<path d="M12 6.56543C8.59688 6.56543 5.83594 9.67148 5.83594 13.5C5.83594 17.3285 8.59688 20.4346 12 20.4346C15.4031 20.4346 18.1641 17.3285 18.1641 13.5C18.1641 9.67148 15.4031 6.56543 12 6.56543ZM12 17.9982C9.79219 17.9982 8.00156 15.9838 8.00156 13.5C8.00156 11.0162 9.79219 9.00176 12 9.00176C14.2078 9.00176 15.9984 11.0162 15.9984 13.5C15.9984 15.9838 14.2078 17.9982 12 17.9982Z" fill="#CEE1F4"/>
<path d="M19.8469 6.29082C19.8469 7.18731 19.2 7.90977 18.4078 7.90977C17.6109 7.90977 16.9688 7.18203 16.9688 6.29082C16.9688 5.39434 17.6156 4.67188 18.4078 4.67188C19.2 4.67188 19.8469 5.39961 19.8469 6.29082Z" fill="#CEE1F4"/>
</g>
<defs>
<clipPath id="clip0_449_1820">
<rect width="24" height="27" fill="white"/>
</clipPath>
</defs>
</svg>
