<svg width="24" height="27" viewBox="0 0 24 27" fill="none" xmlns="http://www.w3.org/2000/svg">
<path d="M0 27L1.687 20.0666C0.645998 18.0371 0.0989998 15.7365 0.0999998 13.3774C0.103 6.00187 5.43799 0 11.993 0C15.174 0.001125 18.16 1.395 20.406 3.924C22.6509 6.453 23.8869 9.8145 23.8859 13.3898C23.8829 20.7664 18.548 26.7683 11.993 26.7683C10.003 26.7671 8.04198 26.2058 6.30499 25.1393L0 27ZM6.59698 22.7171C8.27298 23.8365 9.87298 24.507 11.989 24.5081C17.437 24.5081 21.875 19.5199 21.878 13.3875C21.88 7.24275 17.463 2.26125 11.997 2.259C6.54498 2.259 2.11 7.24725 2.108 13.3785C2.107 15.8816 2.75899 17.7559 3.85399 19.7167L2.85499 23.8207L6.59698 22.7171ZM17.984 16.5701C17.91 16.4306 17.712 16.3474 17.414 16.1798C17.117 16.0121 15.656 15.2032 15.383 15.0919C15.111 14.9805 14.913 14.9243 14.714 15.2595C14.516 15.5936 13.946 16.3474 13.773 16.5701C13.6 16.7929 13.426 16.821 13.129 16.6534C12.832 16.4858 11.874 16.1336 10.739 14.994C9.85598 14.1075 9.25898 13.0129 9.08598 12.6776C8.91298 12.3435 9.06798 12.1624 9.21598 11.9959C9.34998 11.8463 9.51298 11.6055 9.66198 11.4097C9.81298 11.2163 9.86198 11.0768 9.96198 10.8529C10.061 10.6301 10.012 10.4344 9.93698 10.2668C9.86198 10.1003 9.26798 8.45438 9.02098 7.785C8.77898 7.13363 8.53398 7.22137 8.35198 7.21125L7.78198 7.2C7.58398 7.2 7.26198 7.28325 6.98998 7.6185C6.71798 7.95375 5.94999 8.7615 5.94999 10.4074C5.94999 12.0533 7.01498 13.6429 7.16298 13.8656C7.31198 14.0884 9.25798 17.4656 12.239 18.9135C12.948 19.2577 13.502 19.4636 13.933 19.6178C14.645 19.872 15.293 19.836 15.805 19.7505C16.376 19.6549 17.563 18.9416 17.811 18.1609C18.059 17.379 18.059 16.7096 17.984 16.5701Z" fill="#CEE1F4"/>
</svg>
